<?xml version="1.0" standalone="no"?>
<!DOCTYPE svg PUBLIC "-//W3C//DTD SVG 20010904//EN"
 "http://www.w3.org/TR/2001/REC-SVG-20010904/DTD/svg10.dtd">
<svg version="1.0" xmlns="http://www.w3.org/2000/svg"
 width="777.000000pt" height="307.000000pt" viewBox="0 0 777.000000 307.000000"
 preserveAspectRatio="xMidYMid meet">

<g transform="translate(0.000000,307.000000) scale(0.100000,-0.100000)"
fill="#000000" stroke="none">
<path d="M0 1535 l0 -1535 3885 0 3885 0 0 1535 0 1535 -3885 0 -3885 0 0
-1535z m1210 1288 c79 -27 131 -55 152 -84 l21 -27 24 28 c46 55 177 105 273
104 58 0 75 -5 147 -44 89 -48 116 -79 155 -181 21 -53 25 -58 60 -63 42 -7
100 -43 127 -78 41 -55 52 -125 31 -197 -8 -27 -6 -38 5 -51 8 -9 15 -22 15
-28 0 -7 4 -12 9 -12 30 0 43 -191 17 -241 -11 -22 -11 -30 0 -50 7 -13 13
-55 14 -92 0 -85 -29 -147 -94 -201 -44 -36 -61 -44 -158 -80 -27 -10 -48 -23
-48 -31 0 -18 -51 -107 -70 -122 -8 -7 -27 -18 -42 -25 -29 -13 -36 -36 -17
-55 7 -7 9 -25 5 -48 -6 -31 -14 -40 -47 -54 -32 -13 -39 -21 -39 -44 0 -41
-16 -65 -49 -72 -24 -5 -30 -12 -35 -45 -4 -26 -14 -43 -27 -51 -15 -8 -19 -8
-15 0 4 6 0 11 -10 11 -18 0 -74 -47 -74 -62 0 -4 42 -7 93 -7 71 1 84 3 57
10 -28 6 -25 7 15 3 28 -3 98 -9 156 -12 91 -6 110 -11 137 -32 53 -43 66
-127 26 -171 -25 -28 -1 -33 151 -34 l139 0 29 -42 c15 -24 32 -43 37 -43 5 0
23 20 41 45 l32 45 109 0 c80 0 108 -3 108 -12 0 -12 -39 -67 -140 -205 l-31
-41 43 -62 c24 -33 53 -77 64 -97 12 -19 36 -50 52 -68 17 -18 28 -35 25 -39
-4 -3 -56 -6 -117 -5 l-111 0 -30 46 c-17 26 -36 48 -42 50 -7 3 -27 -19 -45
-47 l-33 -51 -130 1 c-71 1 -158 -2 -192 -6 -38 -4 -80 -2 -108 5 -62 16 -145
73 -174 121 -14 21 -28 37 -32 35 -3 -3 -10 -31 -14 -62 -11 -93 -11 -93 -120
-93 l-95 0 0 120 c0 97 -3 120 -14 120 -9 0 -17 -15 -21 -38 -24 -145 -224
-251 -376 -199 -53 18 -139 73 -139 89 0 6 -8 2 -17 -8 -10 -11 -43 -36 -73
-56 -46 -30 -67 -37 -130 -42 -91 -8 -260 13 -344 43 -33 12 -69 21 -82 21
-12 0 -42 15 -66 33 -36 28 -43 39 -42 68 0 23 -7 40 -23 54 -30 27 -31 77 -1
105 12 11 28 20 35 20 7 0 13 5 13 10 0 6 11 22 25 35 33 34 78 33 123 -2 23
-17 46 -26 64 -25 45 4 104 -57 124 -128 19 -67 37 -80 115 -80 59 0 89 13 89
40 0 25 -30 45 -107 71 -59 19 -158 78 -176 103 -4 6 -12 29 -18 51 -14 51 1
103 44 152 58 66 93 75 347 85 124 5 279 7 346 4 66 -3 135 -3 152 0 l31 6
-16 42 c-9 22 -23 45 -31 50 -8 5 -29 23 -46 40 -17 18 -46 38 -64 45 -24 10
-35 22 -39 43 -4 21 -17 35 -43 48 -39 20 -50 36 -50 74 0 16 -10 27 -35 39
-48 23 -64 60 -43 97 16 27 15 28 -21 48 -46 26 -79 64 -111 126 -24 46 -29
50 -107 78 -70 25 -90 38 -128 81 -81 89 -106 183 -69 261 16 32 16 37 0 75
-33 85 -17 180 46 262 24 32 26 38 13 49 -11 9 -15 32 -15 81 0 59 4 74 29
111 34 50 81 83 131 93 43 9 60 22 60 46 0 32 42 103 87 147 98 95 210 119
343 75z m2098 -479 c24 -28 29 -63 10 -82 -17 -17 -21 -16 -64 18 -45 37 -99
39 -99 5 0 -15 13 -25 57 -40 113 -40 149 -93 113 -169 -27 -57 -76 -81 -165
-81 -119 0 -160 28 -160 110 0 45 27 47 55 6 30 -45 88 -65 124 -42 24 15 4
38 -49 56 -28 9 -66 32 -85 50 -30 28 -35 39 -35 77 0 31 7 54 22 73 35 45 72
56 168 50 75 -5 88 -9 108 -31z m552 -134 c0 -138 2 -160 17 -168 28 -16 7
-40 -41 -47 -87 -13 -163 18 -120 50 17 12 19 27 19 118 0 88 -3 108 -18 125
-10 11 -17 28 -15 38 4 21 59 42 116 43 l42 1 0 -160z m875 150 c11 -19 -5
-48 -34 -60 -39 -16 -91 -9 -105 13 -17 29 24 57 85 57 26 0 51 -5 54 -10z
m-1097 -133 c34 -34 37 -42 37 -93 0 -51 -3 -58 -37 -89 -83 -76 -220 -68
-264 16 -34 67 -5 152 66 191 27 15 50 18 98 16 57 -4 66 -7 100 -41z m420
-57 c2 -52 7 -99 11 -103 5 -5 18 -6 30 -2 19 6 21 14 21 72 0 50 -4 69 -17
78 -38 28 9 55 98 55 l39 0 0 -99 c0 -75 4 -101 15 -111 36 -30 10 -52 -77
-65 -37 -6 -48 -4 -55 9 -8 15 -12 15 -48 0 -32 -13 -46 -14 -77 -4 -47 14
-58 37 -58 125 0 53 -4 68 -22 84 -17 17 -19 23 -9 35 15 18 42 24 101 22 l45
-1 3 -95z m487 70 c42 -40 27 -100 -25 -100 -23 0 -33 7 -45 31 -12 22 -22 29
-38 27 -33 -5 -36 -62 -6 -95 20 -20 31 -24 74 -21 47 3 50 2 50 -21 0 -56
-116 -90 -185 -54 -101 52 -105 182 -8 244 47 29 147 23 183 -11z m195 -66 c0
-73 4 -103 17 -125 14 -23 15 -31 5 -41 -18 -18 -144 -17 -165 1 -15 12 -15
15 3 38 28 35 28 123 1 147 -11 10 -17 24 -14 32 6 16 83 42 126 43 l27 1 0
-96z m316 66 c78 -74 67 -170 -26 -224 -47 -28 -143 -28 -183 -2 -85 57 -73
186 23 238 51 28 149 21 186 -12z m221 10 c3 -11 7 -20 10 -20 3 0 16 9 30 20
34 27 85 26 118 -2 23 -20 27 -32 31 -103 3 -44 10 -90 17 -103 16 -34 -4 -47
-78 -47 -68 0 -97 14 -77 38 16 19 24 87 14 122 -9 32 -39 46 -53 23 -13 -20
-11 -116 3 -138 20 -31 -3 -45 -77 -45 -74 0 -95 12 -77 47 21 44 25 117 7
144 -22 35 -14 49 37 67 61 22 89 21 95 -3z m453 5 c31 -16 60 -61 60 -93 0
-32 -21 -42 -92 -42 -69 0 -84 -10 -56 -38 15 -15 73 -16 100 -1 20 11 37 0
38 -23 0 -17 -41 -47 -78 -59 -59 -17 -109 -4 -154 41 -34 34 -38 43 -38 88 0
43 5 57 32 88 18 20 41 40 52 44 34 14 105 11 136 -5z m304 -7 c9 -12 16 -33
16 -45 0 -30 -35 -31 -66 -2 -21 20 -44 19 -44 -2 0 -5 22 -23 49 -39 73 -45
84 -97 31 -145 -19 -17 -35 -20 -97 -18 -82 2 -99 10 -108 55 -11 48 8 56 50
19 41 -35 55 -39 55 -13 0 10 -15 26 -36 37 -37 20 -64 60 -64 95 0 12 13 35
29 51 27 27 35 29 100 29 61 0 72 -3 85 -22z m-875 -522 c6 -7 9 -20 5 -29
-13 -36 -134 -65 -134 -33 0 8 5 18 11 21 5 4 14 18 19 31 8 20 17 24 49 24
21 0 44 -6 50 -14z m-1799 -31 c35 -52 24 -105 -21 -105 -22 0 -32 7 -44 30
-9 17 -22 30 -30 30 -12 0 -15 -20 -15 -113 0 -110 1 -114 26 -136 24 -21 25
-24 10 -39 -11 -11 -39 -18 -84 -20 -88 -5 -136 7 -140 36 -2 12 1 22 7 22 5
0 17 7 25 16 13 12 16 38 16 119 0 57 -4 106 -8 109 -5 3 -22 -8 -37 -24 -49
-52 -97 -31 -76 33 23 70 30 72 199 72 l153 0 19 -30z m1507 -129 c-2 -141 0
-155 18 -176 19 -21 19 -22 0 -36 -11 -8 -43 -14 -78 -14 -84 0 -121 25 -80
55 13 10 16 31 17 113 1 91 -1 103 -21 124 -13 13 -23 29 -23 36 0 22 71 50
132 51 l38 1 -3 -154z m858 124 c0 -30 -34 -50 -86 -50 -39 0 -63 18 -54 42 9
24 46 37 95 35 41 -2 45 -4 45 -27z m1409 8 c3 -13 6 -80 6 -151 0 -83 4 -134
12 -147 18 -29 -7 -49 -70 -57 -42 -5 -53 -3 -58 10 -5 15 -9 15 -34 2 -60
-31 -123 -9 -159 55 -39 70 -18 147 51 191 26 16 44 19 81 15 41 -4 47 -3 47
13 0 11 -7 21 -15 25 -12 4 -23 36 -12 36 1 0 20 7 42 15 62 22 101 19 109 -7z
m-1574 -91 c0 -13 -3 -27 -7 -31 -5 -4 -12 -26 -18 -48 -13 -54 -48 -79 -121
-87 -32 -3 -59 -11 -62 -18 -3 -10 19 -13 85 -13 48 0 93 -4 99 -8 51 -34 30
-111 -38 -142 -77 -35 -215 -23 -239 21 -11 22 -3 59 13 59 6 0 3 11 -6 25
-21 32 -20 41 5 66 19 19 19 22 5 44 -53 80 33 152 164 138 35 -3 65 -1 76 5
30 18 44 14 44 -11z m-1954 -3 c40 -19 67 -63 62 -102 -3 -26 -5 -27 -80 -30
-85 -3 -100 -17 -53 -48 22 -14 32 -15 64 -5 54 16 63 14 59 -11 -5 -36 -63
-68 -121 -68 -61 0 -109 27 -131 74 -59 125 73 250 200 190z m314 -2 c65 -32
66 -104 2 -110 -26 -3 -33 2 -47 27 -24 48 -65 35 -65 -21 0 -47 33 -70 93
-66 49 3 52 2 52 -22 0 -17 -11 -32 -35 -48 -29 -20 -44 -23 -93 -20 -51 4
-63 9 -94 40 -69 69 -52 172 37 219 44 24 105 24 150 1z m217 -2 c3 -11 7 -20
10 -20 3 0 16 9 30 20 31 24 63 25 103 5 33 -17 37 -26 45 -120 3 -38 12 -81
18 -94 17 -33 -12 -51 -84 -51 -61 0 -94 19 -71 42 18 18 15 133 -3 148 -12
10 -18 10 -30 0 -18 -15 -21 -111 -4 -142 9 -18 8 -24 -7 -35 -18 -13 -109
-18 -138 -7 -18 7 -22 39 -6 49 16 10 12 123 -5 149 -19 29 -10 38 60 59 67
21 76 20 82 -3z m472 2 c52 -26 76 -65 76 -122 0 -40 -5 -54 -29 -79 -39 -41
-85 -61 -141 -61 -88 0 -145 51 -145 129 0 61 29 107 83 131 53 24 112 25 156
2z m548 1 c70 -33 96 -132 51 -195 -42 -60 -152 -86 -223 -52 -47 22 -69 59
-69 117 0 58 24 94 84 125 52 26 109 28 157 5z m577 1 c3 -9 6 -55 6 -104 0
-66 4 -91 15 -100 39 -32 -1 -60 -86 -60 -77 0 -112 28 -74 60 10 8 15 31 15
70 0 39 -5 62 -15 70 -18 15 -20 36 -4 46 14 9 99 32 120 33 9 1 20 -6 23 -15z
m294 -11 c30 -22 40 -66 21 -89 -6 -8 -25 -14 -40 -14 -22 0 -32 6 -39 25 -12
31 -35 41 -55 25 -21 -18 -19 -53 6 -84 19 -25 27 -27 73 -24 45 3 51 1 54
-17 9 -63 -129 -100 -198 -53 -95 64 -87 192 15 240 50 23 125 19 163 -9z
m297 -3 c21 -20 25 -32 25 -85 0 -38 5 -68 15 -81 20 -26 19 -40 -7 -64 -24
-22 -77 -27 -96 -8 -9 9 -18 9 -37 0 -88 -40 -174 24 -134 100 13 24 67 48
109 48 27 0 30 3 30 30 0 42 -25 49 -59 16 -15 -14 -37 -26 -50 -26 -18 0 -22
5 -19 28 7 66 166 96 223 42z m302 3 c16 -24 14 -64 -3 -70 -6 -2 -25 8 -43
22 -30 26 -51 26 -51 2 0 -7 21 -23 46 -36 59 -32 83 -75 63 -117 -19 -40 -53
-54 -130 -54 -74 0 -94 13 -105 68 -5 26 -3 32 11 32 9 0 31 -11 47 -25 17
-14 35 -24 41 -22 25 8 15 26 -26 50 -49 29 -73 72 -62 109 17 53 44 67 134
65 54 -1 66 -5 78 -24z m769 11 c40 -19 67 -63 62 -102 -3 -26 -5 -27 -80 -30
-85 -3 -100 -17 -53 -48 22 -15 32 -15 67 -5 74 23 80 -25 7 -61 -101 -52
-219 12 -219 118 0 106 117 175 216 128z m-4095 -547 c24 -13 57 -43 74 -66
26 -37 30 -51 30 -111 0 -61 -3 -72 -31 -107 -121 -152 -374 -83 -374 103 0
64 13 100 48 138 63 67 172 85 253 43z m358 -101 c36 -19 51 -55 51 -126 0
-45 4 -61 17 -68 16 -9 16 -11 0 -36 -22 -32 -60 -42 -103 -27 -24 9 -39 9
-53 2 -36 -20 -90 -13 -116 14 -14 13 -25 32 -25 42 0 44 65 93 124 93 30 0
40 14 32 46 -8 31 -33 31 -58 -1 -20 -25 -61 -34 -73 -15 -35 56 126 116 204
76z m280 5 c8 -5 12 -18 9 -29 -3 -11 -2 -26 3 -33 12 -20 34 5 34 39 0 25 4
27 43 30 58 4 64 -17 19 -62 -60 -60 -57 -91 15 -157 27 -24 28 -27 13 -43
-12 -12 -35 -16 -88 -16 -86 0 -108 10 -89 40 13 21 2 60 -18 60 -16 0 -31
-40 -24 -62 8 -26 -10 -38 -59 -38 -42 0 -63 25 -34 42 21 11 77 92 77 110 -1
17 -28 49 -63 71 -48 31 -9 55 88 56 33 0 66 -3 74 -8z m380 -6 c35 -18 51
-60 51 -132 0 -38 4 -55 15 -59 23 -9 18 -30 -12 -54 -22 -17 -36 -20 -63 -15
-43 7 -61 7 -122 -1 -41 -5 -50 -3 -72 20 -15 14 -26 33 -26 43 0 44 65 93
124 93 30 0 40 14 32 46 -8 32 -39 31 -60 -1 -17 -26 -59 -34 -71 -15 -35 56
127 116 204 75z m332 -8 c47 -31 53 -101 9 -107 -35 -5 -48 2 -60 31 -16 38
-50 37 -64 -4 -8 -22 -6 -32 11 -55 18 -24 27 -27 74 -27 53 0 54 -1 54 -29 0
-22 -7 -33 -35 -47 -67 -36 -154 -20 -199 37 -30 38 -29 121 1 159 53 67 144
86 209 42z m297 -2 c26 -22 30 -32 34 -95 4 -47 11 -77 23 -90 16 -18 16 -20
-10 -45 -22 -23 -32 -26 -63 -21 -45 8 -63 8 -124 0 -41 -5 -50 -3 -72 20 -53
52 -16 119 72 132 53 8 61 15 54 50 -6 32 -32 31 -61 -2 -29 -33 -66 -30 -66
6 0 20 10 30 45 48 62 31 129 30 168 -3z"/>
<path d="M1000 2791 c-82 -27 -141 -90 -181 -194 -21 -55 -23 -57 -77 -72 -72
-21 -99 -40 -123 -86 -21 -43 -25 -103 -8 -159 11 -35 9 -41 -15 -73 -58 -76
-70 -173 -30 -254 19 -39 19 -39 -3 -72 -32 -47 -30 -99 6 -169 42 -82 86
-117 181 -145 62 -18 91 -44 114 -98 25 -59 63 -96 122 -118 71 -27 163 -27
239 -1 81 28 104 45 126 93 17 40 19 74 19 620 0 549 -1 580 -19 615 -26 50
-58 78 -111 98 -51 18 -202 28 -240 15z m201 -46 c54 -19 105 -58 112 -85 6
-23 5 -23 -43 -11 -19 5 -52 12 -73 16 -34 5 -36 8 -26 26 8 16 7 25 -7 40
-34 38 -81 13 -71 -39 5 -26 2 -29 -43 -45 -52 -19 -103 -72 -115 -120 -11
-42 -27 -48 -57 -22 -27 23 -27 24 -13 67 35 100 83 160 141 178 47 14 148 11
195 -5z m-50 -40 c-2 -11 -6 -54 -8 -96 -5 -85 -8 -80 82 -129 33 -17 66 -37
73 -42 9 -8 12 -110 12 -450 l0 -439 -41 -55 -40 -55 -131 3 -131 3 -13 43
c-7 24 -20 52 -28 61 -15 16 -15 19 -1 31 21 18 37 1 41 -44 6 -73 11 -76 139
-76 l113 0 36 49 36 49 -2 433 -3 434 -80 46 -80 45 -3 85 c-2 46 -7 88 -12
93 -14 14 1 37 24 34 15 -2 20 -9 17 -23z m-312 -239 c8 -10 9 -16 1 -21 -13
-8 -30 3 -30 21 0 18 14 18 29 0z m-87 -63 l13 -28 172 -3 171 -2 71 -73 71
-72 0 -267 c0 -254 -1 -269 -21 -303 -13 -21 -28 -35 -37 -33 -28 5 -24 26 7
43 l31 16 0 271 0 272 -62 63 -62 63 -171 0 -170 1 -34 29 c-18 15 -30 33 -27
39 12 19 35 12 48 -16z m361 -156 l77 -59 0 -247 0 -247 -48 -35 c-54 -41
-129 -58 -139 -32 -8 21 17 34 40 21 26 -13 56 -3 95 32 l32 30 0 234 0 234
-37 28 c-21 15 -40 31 -43 34 -3 3 -18 16 -34 28 -24 19 -41 22 -112 22 -45 0
-94 -4 -108 -9 -18 -7 -28 -6 -36 4 -22 27 -1 31 117 27 l118 -5 78 -60z m-45
-58 l62 -60 0 -142 c0 -78 3 -152 6 -164 4 -16 1 -25 -11 -29 -25 -10 -42 12
-27 36 8 13 12 65 12 154 l0 134 -57 56 -57 56 -93 0 c-93 0 -93 0 -133 -36
-21 -19 -42 -44 -45 -55 -5 -13 -14 -19 -28 -17 -27 4 -34 26 -10 35 10 3 39
26 65 50 l47 43 103 0 103 0 63 -61z m-173 11 c3 -5 24 -10 46 -10 32 0 47 -7
84 -41 l45 -42 0 -106 c0 -58 4 -113 10 -121 11 -17 -5 -41 -24 -34 -9 3 -11
37 -8 127 l4 122 -46 43 c-48 44 -68 50 -111 30 -33 -15 -56 2 -35 27 14 17
26 19 35 5z m46 -733 c8 -24 20 -39 33 -41 122 -23 153 -25 207 -12 31 7 71
23 88 35 38 27 53 21 25 -10 -74 -84 -260 -92 -343 -16 -21 19 -71 115 -71
135 0 17 49 -56 61 -91z"/>
<path d="M1550 2781 c-72 -23 -105 -45 -132 -90 l-23 -36 0 -590 c0 -543 1
-593 17 -622 52 -94 222 -140 357 -96 62 19 101 57 143 136 35 64 41 69 113
86 150 37 252 221 176 320 -18 24 -18 25 5 75 38 82 29 149 -33 238 -25 36
-25 40 -14 98 23 115 -21 190 -131 225 -60 19 -64 22 -78 65 -32 96 -77 150
-154 186 -63 29 -164 32 -246 5z m229 -35 c54 -29 120 -121 135 -192 6 -26 3
-32 -19 -42 -28 -13 -60 -75 -51 -98 10 -25 34 -15 46 20 17 51 42 70 89 63
108 -14 164 -98 131 -198 -11 -32 -18 -39 -40 -39 -14 0 -31 5 -38 12 -9 9
-15 9 -24 0 -17 -17 7 -40 51 -48 99 -18 151 -151 99 -254 -31 -62 -75 -66
-136 -15 -24 20 -32 22 -41 12 -22 -28 72 -87 137 -87 32 0 41 -5 50 -25 20
-43 14 -88 -16 -136 -48 -73 -76 -95 -150 -114 l-67 -16 -22 26 c-29 33 -29
38 7 78 29 33 38 70 22 93 -12 20 -76 54 -99 54 -31 0 -29 -16 5 -34 15 -8 35
-23 45 -34 18 -19 17 -21 -12 -55 -33 -37 -41 -85 -18 -109 39 -42 39 -44 8
-106 -35 -70 -87 -118 -136 -128 -19 -3 -65 -5 -103 -2 -110 6 -176 52 -189
132 -8 49 5 43 48 -24 l32 -50 141 2 141 2 -137 3 -138 4 -35 54 -35 55 0 439
c0 492 -8 443 80 494 67 40 37 32 -37 -8 l-63 -36 0 98 c0 124 15 156 90 196
45 23 64 27 137 27 54 0 94 -5 112 -14z"/>
<path d="M1608 2734 c-4 -3 -4 -48 -1 -100 5 -72 3 -97 -8 -111 -12 -15 -12
-16 4 -10 10 4 21 7 23 7 10 0 3 152 -8 170 -15 24 2 46 27 36 12 -4 15 -13
11 -29 -3 -12 -6 -58 -6 -103 l0 -80 -62 -30 c-34 -16 -72 -37 -85 -47 l-23
-18 0 -432 c1 -453 0 -442 46 -500 21 -26 24 -27 138 -27 116 0 117 0 126 26
15 39 10 53 -6 17 l-14 -33 -109 0 -108 0 -27 38 c-22 32 -26 49 -26 103 l1
64 27 -33 c31 -37 51 -40 77 -12 17 19 19 19 39 4 12 -10 2 1 -21 24 l-43 40
0 245 0 244 77 62 78 61 97 2 c54 1 106 2 115 2 10 1 19 -6 21 -15 3 -14 -11
-16 -115 -12 l-118 4 -67 -58 -68 -58 0 -233 0 -233 31 -27 c48 -41 58 -44 88
-34 34 12 56 1 47 -23 -5 -13 -13 -16 -34 -11 -20 5 -23 4 -12 -4 21 -14 36
-12 54 5 31 31 -13 67 -54 45 -17 -9 -26 -8 -43 3 -49 33 -67 58 -67 93 0 31
3 35 20 29 23 -7 60 10 60 29 0 8 11 16 23 20 24 6 24 6 19 133 l-4 128 40 33
c37 29 47 32 99 30 l58 -3 0 35 0 35 -70 1 c-81 0 -92 -4 -152 -59 l-44 -41 2
-165 c2 -137 0 -166 -11 -166 -12 0 -14 30 -12 170 l3 170 62 57 62 58 98 0
98 0 47 -39 c54 -45 92 -66 92 -52 0 5 -10 13 -22 16 -13 4 -42 25 -65 48 -35
33 -40 43 -32 59 7 14 7 23 -2 34 -9 11 -8 14 3 14 8 0 25 11 38 25 13 14 19
25 13 25 -6 0 -16 -7 -23 -15 -10 -12 -43 -15 -177 -15 l-164 0 -70 -67 -69
-67 0 -258 c0 -279 -1 -271 55 -304 22 -12 12 -34 -16 -34 -11 0 -23 10 -29
24 -5 13 -14 27 -19 31 -7 4 -11 97 -11 279 l0 272 71 70 72 69 146 6 146 5
-145 2 -145 1 -75 -70 -75 -70 -3 87 c-2 48 1 91 5 95 4 4 40 25 78 47 l70 39
6 109 c3 60 4 112 2 117 -5 8 -47 10 -55 1z m214 -413 l-103 -6 -80 -64 -80
-65 3 -252 c2 -139 0 -250 -4 -247 -5 2 -8 122 -8 266 l0 261 57 58 57 58 131
-2 130 -2 -103 -5z m98 -51 c10 -7 -13 -10 -75 -10 l-90 0 -63 -58 -62 -58 0
-152 c0 -100 -4 -151 -10 -147 -6 4 -10 70 -10 165 l0 158 67 56 67 56 81 0
c44 0 87 -5 95 -10z m-102 -68 c-25 -2 -50 -15 -81 -43 -54 -47 -73 -52 -31
-8 46 49 79 66 116 60 l33 -6 -37 -3z m89 -3 c6 -6 9 -18 6 -25 -6 -16 -39
-19 -48 -4 -10 17 -51 11 -76 -11 -13 -12 -35 -28 -47 -37 -23 -15 -24 -19
-20 -144 3 -124 -2 -148 -28 -130 -5 4 -7 62 -4 133 l5 126 48 41 c35 30 57
42 80 42 18 0 39 5 47 10 19 12 24 12 37 -1z"/>
<path d="M2004 2415 c-3 -14 -14 -30 -23 -35 -15 -9 -15 -9 0 -10 9 0 22 14
29 30 15 36 46 40 60 8 10 -23 10 -23 7 2 -2 20 -8 26 -34 28 -28 3 -33 -1
-39 -23z"/>
<path d="M1983 2190 c25 -23 49 -50 52 -60 6 -20 49 -28 59 -11 3 4 -6 6 -19
3 -19 -3 -27 1 -34 20 -9 23 -80 88 -96 88 -4 0 13 -18 38 -40z"/>
<path d="M1800 1590 c0 -7 8 -9 20 -5 26 8 38 -20 17 -43 -8 -9 -17 -33 -21
-52 l-6 -35 11 30 c7 17 21 40 32 53 17 18 19 27 11 40 -13 19 -64 29 -64 12z"/>
<path d="M1362 1400 c-7 -11 -26 -29 -42 -39 -17 -10 -27 -21 -23 -24 10 -11
173 -8 173 2 0 5 -15 19 -34 30 -19 12 -37 28 -40 36 -8 21 -19 19 -34 -5z"/>
<path d="M1002 1294 c-51 -36 -10 -84 73 -84 47 0 48 -1 25 -13 -16 -8 -26
-23 -28 -40 -7 -57 -6 -57 319 -57 257 0 300 2 313 16 18 17 20 42 6 64 -8 13
-56 16 -297 20 l-288 6 318 2 c196 1 326 6 338 12 22 12 26 59 7 78 -9 9 -109
12 -388 12 -324 0 -379 -2 -398 -16z"/>
<path d="M1160 1071 c-14 -28 -2 -51 32 -58 16 -3 36 -16 44 -28 8 -13 32 -35
53 -50 28 -18 41 -36 45 -59 10 -54 35 -68 138 -78 51 -5 136 -6 188 -3 52 3
127 1 165 -4 48 -6 -81 -9 -420 -10 -269 -1 -567 -6 -660 -10 -157 -6 -175 -9
-220 -33 -71 -37 -90 -66 -89 -139 1 -48 5 -64 25 -85 28 -30 92 -64 168 -89
30 -10 65 -28 78 -41 68 -68 -32 -134 -158 -104 -43 11 -53 17 -64 44 -6 17
-16 40 -20 51 -5 11 -7 25 -6 31 1 6 -13 26 -31 43 -28 27 -38 31 -66 26 -28
-5 -39 -1 -68 24 -38 34 -46 36 -75 21 -29 -16 -23 -46 16 -76 19 -14 35 -30
35 -35 0 -17 -23 -9 -57 21 -36 32 -61 38 -81 18 -20 -20 -14 -42 22 -77 29
-28 33 -36 23 -52 -9 -15 -7 -23 17 -48 15 -16 42 -31 59 -34 18 -3 52 -10 77
-16 25 -5 59 -13 75 -16 17 -3 61 -13 98 -22 91 -21 187 -14 260 20 57 26 81
52 102 113 l12 36 13 -32 c21 -51 51 -81 104 -106 93 -43 246 -25 313 38 58
55 82 190 48 272 l-15 36 65 0 65 0 0 -169 c0 -93 3 -176 6 -185 5 -12 21 -16
65 -16 l59 0 0 185 0 185 65 0 c36 0 65 -4 65 -9 0 -5 -7 -26 -16 -47 -25 -59
-15 -150 22 -210 43 -71 111 -104 213 -104 138 0 225 64 252 186 32 142 -64
272 -213 290 -66 8 -143 -13 -195 -52 -17 -13 -34 -24 -37 -24 -3 0 -6 16 -6
35 l0 35 -210 0 -210 0 0 -29 c0 -32 -14 -48 -26 -30 -3 6 -34 24 -67 40 l-61
28 376 3 375 3 36 28 c64 48 62 133 -3 172 -32 18 -56 20 -270 25 -234 5 -234
5 -205 24 16 10 42 34 59 52 17 18 42 34 56 36 21 3 25 8 25 38 l0 35 -227 3
c-216 2 -228 1 -238 -17z m-215 -331 c4 -6 -29 -10 -92 -10 -67 0 -93 3 -83
10 20 13 167 13 175 0z m82 -91 c-78 -31 -114 -64 -137 -125 -11 -30 -20 -70
-20 -90 l0 -34 -42 43 c-27 27 -62 51 -93 62 -117 42 -154 63 -161 91 -6 22
-2 32 20 51 27 23 30 23 254 22 l227 0 -48 -20z m157 -100 c71 -56 76 -181 10
-240 -77 -68 -194 2 -194 117 0 111 108 183 184 123z m821 9 c41 -18 69 -74
69 -135 0 -62 -22 -99 -77 -126 -33 -17 -42 -17 -79 -5 -78 24 -114 129 -73
209 30 58 102 83 160 57z m-1723 -87 c18 -16 30 -33 26 -36 -7 -8 -76 44 -77
58 -2 15 20 6 51 -22z m-85 -67 c32 -24 43 -44 24 -44 -13 0 -71 50 -71 61 0
15 11 11 47 -17z m193 -32 c-19 -15 -51 -41 -70 -59 l-35 -32 38 -16 c42 -18
54 -14 105 34 12 12 22 18 22 13 0 -5 -11 -19 -25 -32 -31 -29 -28 -43 11 -52
l29 -7 -30 4 c-60 8 -117 23 -128 34 -6 6 -21 11 -33 11 -12 0 -32 9 -45 21
l-24 21 28 -16 c27 -17 27 -17 97 44 39 33 76 60 83 60 6 0 -4 -13 -23 -28z"/>
<path d="M680 643 c-65 -7 -80 -13 -80 -33 0 -14 12 -26 38 -36 20 -9 74 -34
120 -56 46 -22 85 -38 86 -36 2 1 11 23 20 48 10 25 34 62 54 83 l36 37 -119
-2 c-66 0 -136 -3 -155 -5z"/>
<path d="M1061 518 c-42 -45 -40 -147 4 -185 33 -29 88 -30 114 -4 45 45 46
146 0 192 -27 27 -92 26 -118 -3z"/>
<path d="M1888 510 c-29 -29 -30 -34 -26 -92 4 -51 9 -65 32 -85 54 -46 127
-23 146 48 33 122 -70 210 -152 129z"/>
<path d="M2205 649 c4 -6 -1 -16 -10 -23 -16 -12 -13 -20 45 -105 l63 -92 -58
-87 c-33 -48 -70 -99 -84 -114 -30 -34 -19 -40 65 -36 l58 3 44 63 c24 34 49
62 55 61 7 0 30 -28 52 -62 l40 -62 59 -3 c87 -5 92 0 55 50 -79 111 -129 183
-129 188 0 5 73 110 129 185 l30 40 -70 3 c-79 3 -73 7 -131 -80 -17 -26 -35
-45 -40 -42 -4 3 -26 32 -48 65 -40 57 -42 59 -86 59 -29 0 -43 -4 -39 -11z"/>
<path d="M1394 514 c3 -9 6 -36 6 -60 0 -37 3 -44 20 -44 18 0 20 7 20 60 0
58 -1 60 -26 60 -20 0 -25 -4 -20 -16z"/>
<path d="M1630 406 c0 -73 4 -127 10 -131 6 -3 10 5 10 19 0 13 5 26 12 28 8
3 12 33 13 89 0 46 4 92 9 102 7 14 3 17 -23 17 l-31 0 0 -124z"/>
<path d="M2240 430 c0 -40 1 -42 14 -25 11 15 11 25 4 40 -17 32 -18 31 -18
-15z"/>
<path d="M3492 2198 c-16 -16 -15 -35 4 -91 11 -34 21 -47 35 -47 16 0 19 7
19 48 0 72 -30 118 -58 90z"/>
<path d="M4920 2195 c-23 -28 9 -135 42 -135 15 0 18 8 18 48 0 74 -32 121
-60 87z"/>
<path d="M5631 2201 c-8 -15 -7 -20 5 -25 31 -12 58 3 48 27 -8 23 -41 21 -53
-2z"/>
<path d="M6961 1546 c-7 -8 -14 -29 -17 -48 -14 -83 51 -126 68 -45 15 72 -18
132 -51 93z"/>
<path d="M5374 1566 c-3 -8 -4 -29 -2 -48 2 -28 7 -33 28 -33 21 0 26 5 28 33
4 35 -11 62 -35 62 -7 0 -16 -6 -19 -14z"/>
<path d="M5334 1318 c-7 -10 38 -38 61 -38 27 0 63 26 52 37 -10 10 -107 11
-113 1z"/>
<path d="M3517 1563 c-4 -3 -7 -15 -7 -25 0 -12 7 -18 24 -18 29 0 39 12 30
34 -6 16 -35 22 -47 9z"/>
<path d="M4499 1544 c-10 -13 -10 -25 2 -72 11 -46 18 -58 37 -60 20 -3 22 1
22 38 0 44 -23 110 -38 110 -5 0 -15 -7 -23 -16z"/>
<path d="M5043 1544 c-9 -23 5 -107 21 -123 8 -8 22 -11 32 -7 14 5 16 15 10
53 -10 71 -47 118 -63 77z"/>
<path d="M6195 1440 c-8 -24 1 -40 21 -40 9 0 14 11 14 30 0 35 -25 42 -35 10z"/>
<path d="M7301 1551 c-12 -22 -5 -31 25 -31 27 0 36 12 28 34 -8 22 -41 20
-53 -3z"/>
<path d="M3144 975 c-16 -24 -16 -30 1 -90 20 -77 47 -115 80 -115 48 0 58 64
24 155 -29 77 -73 98 -105 50z"/>
<path d="M3557 803 c-4 -3 -7 -17 -7 -30 0 -35 34 -26 38 10 3 26 -14 37 -31
20z"/>
<path d="M4211 792 c-12 -23 2 -47 23 -39 20 8 22 57 1 57 -8 0 -19 -8 -24
-18z"/>
<path d="M4831 796 c-14 -16 -4 -46 14 -46 16 0 29 35 20 50 -9 14 -20 13 -34
-4z"/>
</g>
</svg>
